/* XPM */
static char *char_11705403527[] = {
/* columns rows colors chars-per-pixel */
"64 64 4 1 ",
"  c None",
". c black",
"X c #621408",
"o c #F9D697",
/* pixels */
"                                                                ",
"                                                                ",
"                                                                ",
"                                                                ",
"                                                                ",
"                                                                ",
"                                                                ",
"                                                                ",
"                                                                ",
"                                                                ",
"                                                                ",
"                             .......                            ",
"                        ...............                         ",
"                       .......ooooo.....                        ",
"                     .....ooooooooooo....                       ",
"                    ....oooooooooooooo....                      ",
"                   ....oooooooooooooooo....                     ",
"                   ...oooooooooooooooooo...                     ",
"                  ...ooo....ooooo....oooo...                    ",
"                  ...ooo.....oooo....oooo...                    ",
"                  ..oooo.....oooo....ooooo..                    ",
"                  ..oooo....ooooo....ooooo..                    ",
"                  ..oooooooooooooooooooooo..                    ",
"                  ...oooooooooooooooooooo...                    ",
"                   ..oooooooXXXXXXXoooooo...                    ",
"                   ...ooooooXXXXXXXoooooo..                     ",
"                    ..ooooooXXXXXXooooo....                     ",
"                    ...ooooooooooooooo....                      ",
"          .............oooooooooooooo..........                 ",
"     .................ooooooooooooooo..............             ",
"    ........oooooooooooooooooooooooooooooooooo.....             ",
"    ...oooooooooooooooooooooooooooooooooooooooooo..             ",
"    ...oooooooooooooooooooooooooooooooooooooooooo..             ",
"    .....ooooooooooo ooooooooooooooooo......oooo...             ",
"     ........o.........oooooooooooooo..............             ",
"       ................oooooooooooooo...   .......              ",
"            ....     ..oooooooooooooo..                         ",
"                     ..ooooooooooooo...                         ",
"                     ..ooooooooooooo..                          ",
"                     ..ooooooooooooo..                          ",
"                     ..ooooooooooooo..                          ",
"                     ..ooooooooooooo...                         ",
"                     ..ooooooooooooo...                         ",
"                     ..oooooooooooooo..                         ",
"                    ...oooooooooooooo..                         ",
"                   ....oooooooooooooo..                         ",
"                   ....oooooooooooooo..                         ",
"                   ...ooooooooooooooo...                        ",
"                   ...oooooooooooooooo..                        ",
"                  ...oooooooo..ooooooo..                        ",
"                  ..ooooooooo..ooooooo..                        ",
"                 ...oooooooo...ooooooo..                        ",
"                 ...oooooooo...ooooooo...                       ",
"                 ..ooooooooo...ooooooo...                       ",
"                 ..oooooooo....ooooooo...                       ",
"                ...ooooooo......oooooo...                       ",
"                ...oooooo.... ..ooooooo..                       ",
"                ....oooo....  ..oooooo...                       ",
"                ...........   ...ooo.....                       ",
"                   .......    ..........                        ",
"                               .......                          ",
"                                                                ",
"                                                                ",
"                                                                "
};
