/* XPM */
static char *char_21705403527[] = {
/* columns rows colors chars-per-pixel */
"64 64 4 1 ",
"  c None",
". c black",
"X c #8A0000",
"o c #EC9D75",
/* pixels */
"                                                                ",
"                                                                ",
"                                                                ",
"                                                                ",
"                                                                ",
"                                                                ",
"                                                                ",
"                                                                ",
"                                                                ",
"                                                                ",
"                                                                ",
"                                                                ",
"                                                                ",
"                           ........                             ",
"                         ............                           ",
"                        ....ooooo......                         ",
"                       ...oooooooooo....                        ",
"                      ...oooooooooooo...                        ",
"                      ...ooooooooooooo...                       ",
"                      ..oo...ooo...oooo..                       ",
"                      ..oo...ooo...oooo..                       ",
"                      ..oo...ooo...oooo..                       ",
"                      ..ooo..ooo...oooo..                       ",
"                      ..ooooooooooooooo..                       ",
"                      ..oooooooooooooo...                       ",
"                      ..ooooooXXoooooo..                        ",
"                      ...ooooXXXXoooo...                        ",
"                      ...ooooXXXXoooo.. .....                   ",
"                     ....ooooXXXXoooo..............             ",
"                    ....ooooooXXXoooo.....oo........            ",
"                   ...oooooooooooooooooooooooooooo..            ",
"                  ....oooooooooooooooooooooooooooo..            ",
"                 ....ooooooooooooooooooooooooooooo...           ",
"                ...oooooooooooooooooooooooooooooooo..           ",
"                ...oooooooooooooooooooooooooooooooo...          ",
"               ...ooooooooooooooooooooooooooooooooo...          ",
"              ...oooo...ooooooooooooooooooooooooooo...          ",
"              ..oooo....ooooooooooooo..ooooooooooo...           ",
"             ...ooo.....ooooo...ooooo...............            ",
"             ..oo.......ooooo...ooooo..............             ",
"             ..o....  ..ooooo...oooooo..                        ",
"            .......   ..ooooo...oooooo..                        ",
"            ......   ...ooooo...oooooo..                        ",
"            .....    ..oooooo....ooooo...                       ",
"            ...      ..oooooo....oooooo..                       ",
"                     ..oooooo....oooooo..                       ",
"                     ..oooooo.....ooooo..                       ",
"                     ..ooooo......ooooo..                       ",
"                     ..ooooo..  ..ooooo..                       ",
"                     ..oooo...  ...oooo..                       ",
"                     ..oooo...  ...ooo...                       ",
"                     ..ooo...    .......                        ",
"                     ..oo....     .....                         ",
"                     ......       ...                           ",
"                     ......                                     ",
"                     ...                                        ",
"                                                                ",
"                                                                ",
"                                                                ",
"                                                                ",
"                                                                ",
"                                                                ",
"                                                                ",
"                                                                "
};
