/* XPM */
static char *coin1705403528[] = {
/* columns rows colors chars-per-pixel */
"64 64 3 1 ",
"  c None",
". c #B83C13",
"X c #B8AB13",
/* pixels */
"                                                                ",
"                                                                ",
"                                                                ",
"                                                                ",
"                                                                ",
"                                                                ",
"                                                                ",
"                                                                ",
"                                                                ",
"                                                                ",
"                                                                ",
"                                                                ",
"                                                                ",
"                           XXXXXXX                              ",
"                         XXXXXXXXXXXXXX                         ",
"                      XXXXXXXXXXXXXXXXXXX                       ",
"                     XXXXXXXXXXXXXXXXXXXXXX                     ",
"                    XXXXXXXXXXXXXXXXXXXXXXXX                    ",
"                    XXXXXXXXXXXXXXXXXXXXXXXXXX                  ",
"                   XXXXXXXXXXXXXXXXXXX...XXXXXX                 ",
"                  XXXXXXXXXXXX...XXXXX...XXXXXXX                ",
"                  XXXXX..XXXXX...XXXXXX..XXXXXXX                ",
"                  XXXXX..XXXXX...XXXXX...XXXXXXXX               ",
"                 XXXXXX..XXXX....XXXXX..XXXXXXXXX               ",
"                 XX.....................XXXXXXXXX               ",
"                 XX.....................XXXXXXXXX               ",
"                 XXXXXXX..XXX..X..XX...XXXXXXXXXX               ",
"                 XXXXXXX..XX...X..X...XXXXXXXXXXX               ",
"                XXXXXXXX......XX.....XXXXXXXXXXXX               ",
"                XXXXXXXX.....XXX....XXXXXXXXXXXX                ",
"                XXXXXXXXX....XXXX...XXXXXXXXXXXX                ",
"                XXXXXXXXXX..XXXXX..XXXXXXXXXXXXX                ",
"                 XXXXXXXXXXXXXXXXXXXXXXXXXXXXXXX                ",
"                 XXXXXXXXXXXXXXXXXXXXXXXXXXXXXX                 ",
"                 XXXXXXXXXXXXXXXXXXXXXXXXXXXXX                  ",
"                 XXXXXXXXXXXXXXXXXXXXXXXXXXXX                   ",
"                  XXXXXXXXXXXXXXXXXXXXXXXXXX                    ",
"                   XXXXXXXXXXXXXXXXXXXXXXXXX                    ",
"                    XXXXXXXXXXXXXXXXXXXXXXX                     ",
"                     XXXXXXXXXXXXXXXXXXXX                       ",
"                        XXXXXXXXXXXXXXX                         ",
"                           XXXXXXXXXXX                          ",
"                                XX                              ",
"                                                                ",
"                                                                ",
"                                                                ",
"                                                                ",
"                                                                ",
"                                                                ",
"                                                                ",
"                                                                ",
"                                                                ",
"                                                                ",
"                                                                ",
"                                                                ",
"                                                                ",
"                                                                ",
"                                                                ",
"                                                                ",
"                                                                ",
"                                                                ",
"                                                                ",
"                                                                ",
"                                                                "
};
