/* XPM */
static char *enemy21705443823[] = {
/* columns rows colors chars-per-pixel */
"64 64 6 1 ",
"  c None",
". c black",
"X c #700000",
"o c #660B7F",
"O c #253FB1",
"+ c white",
/* pixels */
"                           ..OOOO..                             ",
"                           ..OOOO..                             ",
"                           ..OOOO..                             ",
"                           ...OO...                             ",
"                            .......                             ",
"                              ....                              ",
"                              ..                                ",
"                              ..                                ",
"                             ...                                ",
"                             ....                               ",
"                             ....                               ",
"                             ....                               ",
"                            .....                               ",
"                           ..........                           ",
"           ..         .................       ..                ",
"           ...      ........OOOOOOO.....      ..                ",
"          ....    ......OOOOOOOOOOOOO.....    ...               ",
"          ....   ....OOOOOOOOOOOOOOOOOO...    ...               ",
"          ..... ....OOOOOOOOOOOOOOOOOOOO...   ...               ",
"          ...........OOOOOOOOOOO.....OOO.... .....              ",
"           ..............OOOOOO........OO... .....              ",
"           ..O............OOOO....+.....OO.....O..              ",
"           ....O...++++...OOOO...++++...OOO....O..              ",
"           ....O..+...++...OO...++...+..OOO....O...             ",
"           .......+....+...OO..++....+..OOOOOO..O..             ",
"           ..O....++...++..OO..++....+..OOOOO...O..             ",
"           ..O....++..+++..OO...+...+...OOOO....O..             ",
"           ..O.....+++++...OOO...++++...OOOO...OO..             ",
"           ...OO...++++...OOOO....++...OOOO...OOO..             ",
"           ...OOO.........OOOOO........OOOO..OOOO..             ",
"            ..OOO............OOOO....OOOOOO..OOO...             ",
"            ..OOOOOOOOOO.......OOOOOOOOOOOOOOOOO..              ",
"            ...OOOOOOOOO..X.....OOOOOOOOOOOOOOO...              ",
"            ...OOOOOOOO...XXX...OOOOOOOOOOOOOO....              ",
"             ...OOOOOOO...XXXX...OOOOOOOOOOOO....               ",
"             ...OOOOOOO..XXXXX...OOOOOOOOOOO....                ",
"              ....OOOOO..XXXXXX..OOOOOOO.......                 ",
"              ........O..XXXXXX..OOOOOOO......                  ",
"                ......O...XXXXX..OOOOOOoooo...                  ",
"                  ..ooO...XXXXX..OOOOOOoooo...                  ",
"                  ..oooO.........OOOOOoooooO...                 ",
"                 ...oooO.........OOOO...oooO...                 ",
"                ...O...OOOOOOOOOOOOO.....ooOO...                ",
"                ...O....OOOOOOOooooo.....OOOO...                ",
"                ..OO....OOoooooooooo.....OOOOO..                ",
"               ...OO....ooooooooooooo...oOOOOO...               ",
"               ...OOo..oooooooooooooooooooOOOOO..               ",
"               ..OOooooooooo..oooooooooooooOOOO..               ",
"               ..Oooooooooo...oooooooooooooooOO...              ",
"               ..oooooooooo...ooooooooooooooooO...              ",
"               ..ooooooooooooooooooooooooooooooO..              ",
"               .ooooooooooo...oooooooooooooooooo..              ",
"               .ooooooooooo...oooooooooooooooooo..              ",
"               .oooooooooooooooooooooooooooooooo..              ",
"               ..ooooooooo....oooooooooooooooooo..              ",
"               ..ooooooooo....oooooooooooooooooo..              ",
"               ..ooooooooo....oooooooooooooooooo..              ",
"               ..oooooooooooooooooooooooooooooo...              ",
"               ..oooooooooooooooooooooooooooooo..               ",
"               ..oooooooooooooooooooooooooooooo..               ",
"              ...ooooooooooooooooooooooooooooo...               ",
"              ................ooooooooooo........               ",
"              ..................................                ",
"                            ..............                      "
};
