/* XPM */
static char *enemy11705443823[] = {
/* columns rows colors chars-per-pixel */
"64 64 8 1 ",
"  c None",
". c black",
"X c #393939",
"o c #590707",
"O c #7B6A00",
"+ c #6C6969",
"@ c #934099",
"# c white",
/* pixels */
"                                                                ",
"                                                                ",
"                                                                ",
"                                                                ",
"                                                                ",
"                                                                ",
"                                                                ",
"                                                                ",
"                                                                ",
"                                                                ",
"                                                                ",
"                                                                ",
"                                                                ",
"                                                                ",
"                                                                ",
"                                               ..               ",
"                          .......             ....              ",
"         .....         ...............       .....              ",
"         .......     .......XX+..........  .......              ",
"         .. .....   .....+X+XX++++XX..........++..              ",
"         ...++.........+X+XX+X+++XX++X+......XXX..              ",
"          ..+XXX......++X++X+XX++X+++X++...+XXXX..              ",
"          ..+XXXX....+++X++XX+X++XX++X++++++XXXX..              ",
"          ..+XXXXX++++++X+++X+X+++X+X+++++++XXX+..              ",
"          ...+XXXX++++++X++XX+X+++X+XX++++++++++..              ",
"           ..+XX++++++++X++X++X+++X++X++++++++++...             ",
"           ...++++++++++X++X++X++++++++++++++++++..             ",
"           ...+++++++++++++++++++++++OOOO++++++++...            ",
"            ..+++++O...OO+++++++++++OO..OO+++++++...            ",
"           ...++++O.....O+++++++++++O....O++++++++...           ",
"           ...++++O.....O+++++++++++O....O++++++++...           ",
"          ...+++++O.....O+++++++++++O....O+++++++++..           ",
"          ...+++++OO...OO+++++++++++OO..OO+++++++++..           ",
"          ..+++++++OOOOOO++++...++++++OOO++++++++++...          ",
"          ..++++++++++++++++.....+++++++++++++++++++..          ",
"          ..++++++++++++++++.....+++++++++++++++++++....        ",
"      ......++++++++++++++++.....+++++++++..............        ",
"      .........++++++++++++++..+++++++++++..............        ",
"          .....++++++++++++++..++++++++++++++++++++...          ",
"      ... .....++++++++...++...+++..++++++++......+..           ",
"      ...........++++++.............++++++++...........         ",
"      ...........++++++++...ooo.....+++++++...++..........      ",
"           ........+++++++++ooo...+++++++++.........  ....      ",
"         ..........+++++++++ooo++++++++++++++......             ",
"        ..........+++++++++++++++++++++++++........             ",
"        ..     .....++++++++++++++++++.........  ....           ",
"        ..      ....@@@+++++++++++++@@@.....      .....         ",
"                  ..@@@@@@+++++++@@@@@@..           ......      ",
"                   ..@@@@@@@@@@@@@@@@@+...            ....      ",
"                   ..+++@@@####@@@@+++++...             ..      ",
"                  ...+++++######++++++++...                     ",
"                  ..++++++######+++++++++...                    ",
"                  ..+++++++####++++++++++...                    ",
"                  ..++++++++++++++++++++++..                    ",
"                  ..++++++++++++++++++++++...                   ",
"                  ..++++++++++++++++++++++...                   ",
"                  ...++++++++++++++++++++++..                   ",
"                  ...++++++++++++++++++++++..                   ",
"                   ..++++++++++++++++++++++..                   ",
"                   ..++++++++++++++++++++++..                   ",
"                   ..++++++++++++++++++++....                   ",
"                   .......+..................                   ",
"                   ........................                     ",
"                   ..   ....                                    "
};
