/* XPM */
static char *exit1705403528[] = {
/* columns rows colors chars-per-pixel */
"64 64 4 1 ",
"  c None",
". c black",
"X c #3E2F18",
"o c #B83C13",
/* pixels */
"                                                                ",
"                                                                ",
"                                                                ",
"                                                                ",
"                                                                ",
"                                                                ",
"                                                                ",
"                                                                ",
"                                               ooo              ",
"                 oooooooo     oooooooooooooooooooo              ",
"              oooooooooooooooooooooooooooooooooooo              ",
"              oooooooooooooooooooooooooooooooooooo              ",
"               oooooooooooooooooooooooooooooooooo               ",
"               oooooooooooooooooooooooooooooooooo               ",
"               ooooooooooooooooooooooooooXXoooooo               ",
"               oooooooooooooooooooooooooXXoooooooo              ",
"               oooooooooXoooooooooooooooXXoooooooo              ",
"               ooooooooXooooooooooooooooooXooooooo              ",
"               ooooooooXXoooooooooooooooooXooooooo              ",
"               oooooooooXoooooooooooooooooXooooooo              ",
"               oooooooooXooooooooooXXooooXoooooooo              ",
"               ooooooooooooooooooooXoooooooooooooo              ",
"               ooooooooooooooooooooXXooooooooooooo              ",
"               oooooooooooooooooooooXooooooooooooo              ",
"               oooooooooooooooooooooXooooooooooooo              ",
"               ooooooooooooooooooooooooooooooooooo              ",
"               oooooooooooooooooooooooooooooooooooo             ",
"               oooo....oooooooooXXooooooooooooooooo             ",
"               ooo......ooooooooXoooooooooooooooooo             ",
"               oo.......ooooooooXoooooooooooooooooo             ",
"               oo.......oooooooooXooooooXXooooooooo             ",
"               oo.......ooooooooXXooooooXoooooooooo             ",
"              oooo.....oooooooooXoooooooXXooooooooo             ",
"              oooooooooooooooooooooooooooXooooooooo             ",
"              oooooooooooooooooooooooooooXooooooooo             ",
"              oooooooooooXXooooooooooooooXooooooooo             ",
"              ooooooooooooXoooooooooooooooooooooooo             ",
"              oooooooooooXXooooooooXoooooooooooooo              ",
"               ooooooooooXoooooooooXoooooooooooooo              ",
"              oooooooooooXXooooooooXoooooooooooooo              ",
"              ooooooooooooXooooooooXoooooooooooooo              ",
"              oooooooooooooooooooooXXooooooooooooo              ",
"              ooooooXoooooooooooooooXooooooooooooo              ",
"               oooooXoooooooooooooooXoooooooooooo               ",
"               oooooXXooooooooooooooXooooXooooooo               ",
"               ooooooXoooooooooooooooooooXooooooo               ",
"               oooooXXoooooooooooooooooooXooooooo               ",
"              oooooooooooooooooooooooooooXooooooo               ",
"              ooooooooooooooooooooooooooXXooooooo               ",
"              ooooooooooooooooooooooooooooooooooo               ",
"              ooooooooooooooooooooooooooooooooooo               ",
"              ooooooooooooooooooooooooooooooooooo               ",
"                            ooooooooooooooo                     ",
"                                                                ",
"                                                                ",
"                                                                ",
"                                                                ",
"                                                                ",
"                                                                ",
"                                                                ",
"                                                                ",
"                                                                ",
"                                                                ",
"                                                                "
};
