/* XPM */
static char *exit21705443823[] = {
/* columns rows colors chars-per-pixel */
"64 64 5 1 ",
"  c None",
". c black",
"X c #621408",
"o c #643606",
"O c white",
/* pixels */
"                                                                ",
"                                                                ",
"                                                                ",
"                                                                ",
"                                                                ",
"                                                                ",
"                                                                ",
"                                                                ",
"                                                                ",
"                                                                ",
"   XXXX                                                         ",
"   XXXXX                                                        ",
"   XXXXXXXoooooo                                                ",
"   XXXXXXXooooooooooooooooooooooooooooooooooooooo               ",
"   XXXXXXXooooooooooooooooooooooooooooooooooooooo               ",
"   XXXXXXXXOooooooooooooooooooooooooooooooooooooo               ",
"   XXXXXXXXOOOOOOOOOOOOOOOOOOOOOOOOOOOOOOOOOOoooo               ",
"   XXXXXXXXOOOOOOOOOOOOOOOOOOOOOOOOOOOOOOOOOOoooo               ",
"   XXXXXXXXOOOOOOOOOOOOOOOOOOOOOOOOOOOOOOOOOOoooo               ",
"   XXXXXXXXOOOOOOOOOOOOOO......OOOOOOOOOOOOOOoooo               ",
"   XXXXXXXXOOOOOO....OO........OOOOOOOOO..OOOooooo              ",
"   XXXXXXXXOO........OO....OO..OOOOOOOOO..OOOooooo              ",
"   XXXXXXXXO.........OOOOOOOO..OOOOOOOOO..OOOooooo              ",
"   XXXXXXXXO...OOOO..OOOOOOOO..OOOOOOOOO..OOOooooo              ",
"   XXXXXXXXXOOOOOOO..OOOOOOOO..OOOOOOOOO..OOOooooo              ",
"   XXXXXXXXXOOOOOOO..OOOOOOOOOOOOOOOOOOO..OOOooooo              ",
"   XXXXXXXXXOOOOOOO..OOOOOOOOOOOOOOOOOOO..OOOooooo              ",
"   XXXXXXXXXOOOOOOO..OOOOOOOOOOOOOOOOOOO...OOooooo              ",
"   XXXXXXXXXOOOOOOO..OOOOOOOOOOOOO....OO...OOooooo              ",
"   XXXXXXXXXOOOOOOOOOOOOOOOOOO........OOO..OOooooo              ",
"   XXXXXXXXXOOOOOOOOOO.............OOOOOO..OOooooo              ",
"   XXXXXXXXXOOO................OOOOOOOOOO..OOooooo              ",
"   XXXXXXXXXOOO........OOOOOOOOOOOOOOOOOO..OOOoooo              ",
"   XXXXXXXXXOOO..OOOOOOOOOOOOOOOOOOOOOOOO..OOOoooo              ",
"   XXXXXXXXXOOOOOOOOOOOOOOO...OOOOOOOOOOOOOOOOoooo              ",
"   XXXXXXXXXOOOOOOOOOO........OOOOOOOOOOOOOOOooooo              ",
"   XXXXXXXXXOOOOOOOOO........OOOOOOOOOOO..OOOooooo              ",
"    XXXXXXXXOOOOOOOOO...OOOOOOOOOOOOOOOO...OOooooo              ",
"    XXXXXXXXOOOOOOOOO...OOOOOO..OOOOOOOO...OOooooo              ",
"    XXXXXXXXOOOOOOOOOO..........OOOOOOOO...OOooooo              ",
"    XXXXXXXXOOOOOOOOOO..........OOOOOOOOOOOOOoooooo             ",
"    XXXXXXXXXOOOOOOOOO...OOOOOOOOOOOOOOOOOOOOoooooo             ",
"   XXXXXXXXXXOOOOOOOOOO...OO.....OOOOOOOOOOOOoooooo             ",
"   XXXXXXXXXXOOOOOOOOOO..........OOOOOOOOOOOOoooooo             ",
"   XXXXXXXXXXOOOOOOOOOOO......OOOOOOOOOOOOOOOoooooo             ",
"   XXXXXXXXXXOOOOOOOOOOOOOOOOOOOOOOOOOOOOOOOOooooo              ",
"   XXXXXXXXXXOOOOOOOOOOOOOOOOOOOOOOOOOOOOOOOOOoooo              ",
"   XXXXXXXXXXOOOOOOOOOOOOOOOOOOOOOOOOOOOOOOOOOoooo              ",
"   XXXXXXXXXoooooooooooooooooOOOOOOOOOOooooooooooo              ",
"    XXXXXXXXoooooooooooooooooooooooooooooooooooooo              ",
"    XXXXXXXXoooooooooooooooooooooooooooooooooooooo              ",
"    XXXXXXXXoooooooooooooooooooooooooooooooooooooo              ",
"    XXXXXXXX    oooooooo                 ooooooooo              ",
"    XXXXXXX                                                     ",
"    XXXXXX                                                      ",
"    XXXXX                                                       ",
"    XXXXX                                                       ",
"    XXXX                                                        ",
"    XXX                                                         ",
"                                                                ",
"                                                                ",
"                                                                ",
"                                                                ",
"                                                                "
};
