/* XPM */
static char *land1705403528[] = {
/* columns rows colors chars-per-pixel */
"64 64 12 1 ",
"  c black",
". c #030502",
"X c #040704",
"o c #050804",
"O c #070B06",
"+ c #0A1008",
"@ c #0F180C",
"# c #152111",
"$ c #1D2F19",
"% c #2A4323",
"& c #3B5F32",
"* c #3C6033",
/* pixels */
"****************************************************************",
"****************************************************************",
"****************************************************************",
"****************************************************************",
"****************************************************************",
"****************************************************************",
"*******************************************%%%&*****************",
"******************************************%+.+%&****************",
"****************************************&%$. .$&****************",
"****************************************%+.   +%****************",
"****************************************$. .  .$%***************",
"***************************************%O  O+...+%**************",
"***************************************$.  $%$  .$**************",
"**************************************%O  +%*%+  O%*************",
"**************************************%X  $***$  .$&************",
"**************************************%+O+%***%+  O%************",
"**************************************&%%%&***&$X O%************",
"***********************************************%+X+%************",
"*************%%%********************************%%%&************",
"***********%$o.+%*********************************&&************",
"**********%+.  .$***********************************************",
"**********$.    O%**********************************************",
"*******&%$O  X. .$**********************************************",
"*******%+.  .#O  O%*********************************************",
"*******%X  .+%$. .%&********************************************",
"*******%+XO$%&%+O+%*********************************************",
"*******&%%%***&%%%************&&%%%*****************************",
"*******************************%+.+%****************************",
"******************************%$X .$****************************",
"*****************************%+O.  O%***************************",
"*****************************$  .  .$%&*************************",
"****************************%O  OO. .+%*************************",
"****************************$O  $%$. .$*************************",
"***************************%O  +%&%O  O%************************",
"***************************$.  $&**$. X%************************",
"**************************%O  O%&**%+X+%************************",
"**************************%X .$&****%%%*************************",
"**************************%+X+%*********************************",
"***************************%%%&*********************************",
"****************************************************************",
"****************************************************************",
"****************************************************************",
"****************************************************************",
"*****************************************&%%$%%*****************",
"**************%%$%%********************&%$O...O$%***************",
"*************%+...+%*****************&%$O.     .+%**************",
"*************$.   .$*****************%+.   ...   $&*************",
"************%O     O%**************&%$.  XO$$$O  O%*************",
"************$X .@. O%&************%$O...O$%&*&$. .$%&***********",
"***********%O  O$+.+%&***********%+.  .$%&****%+...+%***********",
"***********%. .$*%%%&************%.  .+%&&****&%$. O%***********",
"***********%+O+%*****************%+OO$%**&******%+.+%***********",
"************%%%*******************%%%************%%%************",
"****************************************************************",
"****************************************************************",
"****************************************************************",
"****************************************************************",
"****************************************************************",
"****************************************************************",
"****************************************************************",
"****************************************************************",
"****************************************************************",
"****************************************************************",
"****************************************************************"
};
