/* XPM */
static char *wall1705403528[] = {
/* columns rows colors chars-per-pixel */
"64 64 10 1 ",
"  c #020101",
". c gray1",
"X c #070707",
"o c #0B0A0A",
"O c #0B0B0B",
"+ c #100F0F",
"@ c #171616",
"# c #201F1F",
"$ c #2E2C2C",
"% c #423F3F",
/* pixels */
"%%%%%%%%%%%%%%%%%%$oOO$%%%%%%%%%%%%%%%%%%$@XO$%%%%%%%%%%%%%%%%%%",
"%%%%%%%%%%%%%%%%%%$X  $%%%%%%%%%%%%%%%%%%$X .#%%%%%%%%%%%%%%%%%%",
"%%%%%%%%%%%%%%%%%%@   @%%%%%%%%%%%%%%%%%%$X  X$%%%%%%%%%%%%%%%%%",
"%%%%%%%%%%%%%%%%%%$   $%%%%%%%%%%%%%%%%%%$#   $%%%%%%%%%%%%%%%%%",
"%%%%%%%%%%%%%%%%%%$   $%%%%%%%%%%%%%%%%%%%#   $%%%%%%%%%%%%%%%%%",
"%%%%%%%%%%%%%%%%%%$   $%%%%%%%%%%%%%%%%%%%$   $%%%%%%%%%%%%%%%%%",
"%%%%%%%%%%%%%%%%%%@   $$%%%%%%%%%%%%%%%%%%#   $$%%%%%%%%%%%%%%%%",
"%%%%%%%%%%%%%%%%%%$   $%%%%%%%%%%%%%%%%%%%$   @%%%%%%%%%%%%%%%%%",
"$$$@$$$$$#$$%%%%%%$   @%%$%%%$%$%$%%%%%$%%$O  X$%%%%%%%%%%%%%%%%",
"  O X+@X   X@@$@$@@   $@$$$@$$$$$$$$$@$$$$$$   $%%%%$$$#$#$$$%%%",
"                        o.  O.           X$@   O$#$#$O.    X@$$$",
"                             .                                ..",
"$@$$$  X@$$O      .   . .      X                      .    X    ",
"%%%$%$$$%%$$@X  ##$#$#$#$#$#$$$@$@$$$@    .         X+##$@$O    ",
"%%%%%%%%%%%%@   #%%%%%%%%%%%%%%%%%%%%@X  @$#$@$$$#$#$$$%%%%$$$$@",
"%%%%%%%%%%%%$   $%%%%%%%%%%%%%%%%%%%%$   $%%%%%%%%%%%%%%%%%%$%%%",
"%%%%%%%%%%%%$   @%%%%%%%%%%%%%%%%%%%%@   $%%%%%%%%%%%%%%%%%%%%%%",
"%%%%%%%%%%%%$   $%%%%%%%%%%%%%%%%%%%%$   $%%%%%%%%%%%%%%%%%%%%%%",
"%%%%%%%%%%%%$   $%%%%%%%%%%%%%%%%%%%%$   @%%%%%%%%%%%%%%%%%%%%%%",
"%%%%%%%%%%%%$   $$%%%%%%%%%%%%%%%%%%$$  X$%%%%%%%%%%%%%%%%%%%%%%",
"%%%%%%%%%%%$@   $$%%%%%%%%%$%$%%%%%%%$   $$%%%%%%%%%%%%%%%%%%%%%",
"%%%$$$$@$@$$$   $$$@$$$@$@$$$$$@$$$#$@  .$%%%$%%$$$#$#$$%%%$%%%%",
"O$@O  X               X     OX       X. X@$$$$$@$X.   .X$@$$$$$%",
"                                              X .       .   X@$%",
"         X             X       X                  ..  ..     X$%",
"   O@$$$$@$#$@@@$@   @$@$$$@$$$@$@$$@O            $$$@$+     O$%",
"O@$$%%%%%%%%%%%%%@   $%%%%%%%%%%%%%%$$$$$#$#$O.  @$%%%%$$#$#$$$%",
"%%%%%%%%%%%%%%%%%$  X$%%%%%%%%%%%%%%%%%$%%%%$X  O$%%%%%%%%%%%%%%",
"%%%%%%%%%%%%%%%%%$   @%%%%%%%%%%%%%%%%%%%%%%$.  $$%%%%%%%%%%%%%%",
"%%%%%%%%%%%%%%%%$$  X$%%%%%%%%%%%%%%%%%%%%%%#   @%%%%%%%%%%%%%%%",
"%%%%%%%%%%%%%%%%%$   $$%%%%%%%%%%%%%%%%%%%%%$   $%%%%%%%%%%%%%%%",
"%%%%%%%%%%%%%%%%%$   $%%%%%%%%%%%%%%%%%%%%%%#  .$%%%%%%%%%%%%%%%",
"%%%%%%%%%%%%%%%%%@   $%%%%%%%%%%%%%%%%%%%%%%$   $%%%%%%%%%%%%%%%",
"%%%%%%%%%%%%%%%%%$   $%%%%%%%%%%%%%%%%%%%%%%#   #%%%%%%%%%%%%%%%",
"%%%%%%%%%%%%%%%%%$   @%%%%%%%%%%%%%$%%%%%%%%$   $%%%%%%%%$%$%%%%",
"%%$$$$$@$#$#$#$#$@  X@$@$$$@$$$@$$$$$@$$$$%%#   #%%%%%%$$$$$$$$$",
"$$@X                                O    X##@   ##$@$$@O      .O",
"O.                                  .       X                   ",
"                       X                X                 X   .O",
"   X@  X@$$@$#$$$$$@$#$@$$$@$@.   $@$@$$@X             X$@$@$$$$",
"$@$$$   $$%%%%%%$%%%%%%%%%%%%%$   $%%%%%%$$$$@$@$$$$$$$$$$%%%%%%",
"%%%%$   $%%%%%%%%%%%%%%%%%%%%%@   @%%%%%%%%$%%%%$%$%%%%%%%%%%%%%",
"%%%%@   $$%%%%%%%%%%%%%%%%%%%%$   $%%%%%%%%%%%%%%%%%%%%%%%%%%%%%",
"%%%%$   $%%%%%%%%%%%%%%%%%%%%%$   $%%%%%%%%%%%%%%%%%%%%%%%%%%%%%",
"%%%%$   $%%%%%%%%%%%%%%%%%%%%%$   $$%%%%%%%%%%%%%%%%%%%%%%%%%%%%",
"%%%%@. .$%%%%%%%%%%%%%%%%%%%%$$   $%%%%%%%%%%%%%%%%%%%%%%%%%%%%%",
"%%%$X  X$%%%%%%%%%%%%%%%%%%%%%$.  $%%%%%%%%%%%%%%%%%%%%%%%%%%%%%",
"%%%$.  @%%%%%%%%%%%%%%%%%%%%%%$O O$%%%%%%%%%%%%%%%%%%%%%%%%%%%%%",
"%%%$X  .@$$@$$$@$#$#$#$@$$$@$@$@$@$@$$%%%%%%%$%%%%%$$#$#$#$#$#$#",
"%%%$@       X       .   X     X   X .X##$#$#$$$@$$$O    .       ",
"$$@O                                        O.                  ",
"  .                                                 .  .        ",
"        @#$$$@$$$$@X X@$$@$$$@$$$@$$$O             X$@$$$#$#$#$#",
"  XO@@@$%%%%%%%$%%$   $%%%%%%%%%%%%$$$$#$#$##   $@$$$%%%%%%%%%%%",
"$@$$%%%%%%%%%%%%%%@   $%%%%%%%%%%%%%%%%%%%%%#   @%%%%%%%%%%%%%%%",
"%%%%%%%%%%%%%%%%%%$   $%%%%%%%%%%%%%%%%%%%%%$   $%%%%%%%%%%%%%%%",
"%%%%%%%%%%%%%%%%%%$   $$%%%%%%%%%%%%%%%%%%%%$.  #%%%%%%%%%%%%%%%",
"%%%%%%%%%%%%%%%%%%$   $%%%%%%%%%%%%%%%%%%%%%$.  $%%%%%%%%%%%%%%%",
"%%%%%%%%%%%%%%%%%%$   @%%%%%%%%%%%%%%%%%%%%%#   #%%%%%%%%%%%%%%%",
"%%%%%%%%%%%%%%%%%$$.  $%%%%%%%%%%%%%%%%%%%%%$   $%%%%%%%%%%%%%%%",
"%%%%%%%%%%%%%%%%%%@   $%%%%%%%%%%%%%%%%%%%%%@   #%%%%%%%%%%%%%%%",
"%%%%%%%%%%%%%%%%%%$X  $%%%%%%%%%%%%%%%%%%%%%$   $%%%%%%%%%%%%%%%",
"%%%%%%%%%%%%%%%%%%$O.O$%%%%%%%%%%%%%%%%%%%%%$   #%%%%%%%%%%%%%%%",
"%%%%%%%%%%%%%%%%%%%$$$%%%%%%%%%%%%%%%%%%%%%$$  .$%%%%%%%%%%%%%%%"
};
